<svg xmlns="http://www.w3.org/2000/svg" width="640" height="520" viewBox="0 0 640 520" data-palette="bd56e6-e76ac8-c6acf6-ec25e87286c3" role="img" aria-labelledby="t d">
<title id="t">DraftProof</title><desc id="d">每次保存进入 ed25519 哈希链，被误判时导出可离线验签的写作过程回执。</desc>
<defs><linearGradient id="brand" gradientUnits="userSpaceOnUse" x1="0" y1="0" x2="1000" y2="1"><stop stop-color="#a149c5"/><stop offset=".55" stop-color="#ab4f94"/><stop offset="1" stop-color="#796997"/></linearGradient><radialGradient id="halo"><stop stop-color="#a149c5" stop-opacity=".20"/><stop offset="1" stop-color="#fdf9fe" stop-opacity="0"/></radialGradient><filter id="glow" x="-60%%" y="-60%%" width="220%%" height="220%%"><feGaussianBlur stdDeviation="5"/></filter><pattern id="grid" width="40" height="40" patternUnits="userSpaceOnUse"><path d="M40 0H0V40" fill="none" stroke="#ebcbf7" stroke-opacity=".35" stroke-width=".6"/></pattern><marker id="arrow" viewBox="0 0 10 10" refX="8" refY="5" markerWidth="5" markerHeight="5" orient="auto"><path d="m1 1 7 4-7 4" fill="none" stroke="#a149c5" stroke-width="1.5"/></marker></defs>
<style>text{font-family:Arial,'Noto Sans SC','PingFang Sans SC','PingFang SC','Microsoft YaHei',sans-serif}.mono{font-family:ui-monospace,Menlo,Consolas,monospace}.flow{stroke-dasharray:10 110;animation:flow 6s linear infinite}.pulse{animation:pulse 4.5s ease-in-out infinite}.drift{animation:drift 9s ease-in-out infinite alternate}.turn{transform-box:fill-box;transform-origin:center;animation:turn 80s linear infinite}.stage{animation:pulse 6s ease-in-out infinite}@keyframes flow{to{stroke-dashoffset:-360}}@keyframes pulse{0%,100%{opacity:.45}50%{opacity:1}}@keyframes drift{to{transform:translate(6px,-8px)}}@keyframes turn{to{transform:rotate(360deg)}}@media (prefers-reduced-motion: reduce){*{animation:none!important}}</style><rect width="640" height="520" rx="16" fill="#fdf9fe"/>
<rect width="640" height="520" rx="16" fill="url(#grid)"/>
<ellipse cx="320" cy="360" rx="300" ry="180" fill="url(#halo)"/>
<circle class="drift" cx="304.7" cy="410.9" r="1.33" fill="#ab4f94" opacity="0.29"/><circle cx="26.5" cy="337.4" r="0.90" fill="#a149c5" opacity="0.69"/><circle cx="434.4" cy="396.4" r="1.21" fill="#ab4f94" opacity="0.60"/><circle cx="107.2" cy="354.4" r="0.78" fill="#a149c5" opacity="0.74"/><circle class="drift" cx="55.3" cy="452.9" r="0.68" fill="#ab4f94" opacity="0.61"/><circle cx="222.2" cy="345.2" r="1.53" fill="#a149c5" opacity="0.21"/><circle cx="56.5" cy="477.9" r="1.16" fill="#ab4f94" opacity="0.25"/><circle cx="612.3" cy="486.1" r="0.72" fill="#a149c5" opacity="0.45"/><circle class="drift" cx="101.0" cy="321.3" r="1.28" fill="#ab4f94" opacity="0.30"/><circle cx="438.1" cy="253.4" r="0.79" fill="#a149c5" opacity="0.69"/><circle cx="260.3" cy="348.9" r="1.26" fill="#ab4f94" opacity="0.49"/><circle cx="250.7" cy="247.9" r="1.40" fill="#a149c5" opacity="0.78"/><circle class="drift" cx="605.8" cy="412.5" r="0.99" fill="#ab4f94" opacity="0.42"/><circle cx="434.1" cy="415.2" r="0.73" fill="#a149c5" opacity="0.34"/><circle cx="238.0" cy="373.0" r="1.49" fill="#ab4f94" opacity="0.50"/><circle cx="36.9" cy="453.9" r="1.07" fill="#a149c5" opacity="0.51"/><circle class="drift" cx="153.3" cy="351.1" r="1.03" fill="#ab4f94" opacity="0.66"/><circle cx="81.6" cy="383.0" r="0.80" fill="#a149c5" opacity="0.62"/><circle cx="42.1" cy="311.9" r="0.98" fill="#ab4f94" opacity="0.58"/><circle cx="51.2" cy="359.4" r="0.83" fill="#a149c5" opacity="0.37"/><circle class="drift" cx="305.8" cy="489.3" r="1.13" fill="#ab4f94" opacity="0.77"/><circle cx="120.5" cy="480.3" r="1.00" fill="#a149c5" opacity="0.31"/><circle cx="469.1" cy="477.1" r="0.61" fill="#ab4f94" opacity="0.36"/><circle cx="482.4" cy="328.9" r="0.87" fill="#a149c5" opacity="0.21"/><circle class="drift" cx="44.0" cy="401.0" r="1.68" fill="#ab4f94" opacity="0.80"/><circle cx="322.2" cy="246.2" r="0.95" fill="#a149c5" opacity="0.67"/><circle cx="519.2" cy="406.2" r="0.85" fill="#ab4f94" opacity="0.52"/><circle cx="306.4" cy="403.0" r="0.89" fill="#a149c5" opacity="0.77"/><circle class="drift" cx="556.6" cy="282.2" r="0.92" fill="#ab4f94" opacity="0.72"/><circle cx="187.0" cy="485.4" r="1.17" fill="#a149c5" opacity="0.62"/><circle cx="442.8" cy="295.7" r="0.91" fill="#ab4f94" opacity="0.35"/><circle cx="430.0" cy="420.5" r="0.74" fill="#a149c5" opacity="0.73"/><circle class="drift" cx="272.2" cy="302.7" r="1.08" fill="#ab4f94" opacity="0.79"/><circle cx="356.0" cy="402.4" r="1.61" fill="#a149c5" opacity="0.78"/><circle cx="476.3" cy="348.6" r="1.25" fill="#ab4f94" opacity="0.74"/><circle cx="493.5" cy="390.8" r="0.98" fill="#a149c5" opacity="0.42"/><circle class="drift" cx="461.5" cy="386.5" r="0.62" fill="#ab4f94" opacity="0.63"/><circle cx="562.3" cy="447.4" r="1.59" fill="#a149c5" opacity="0.75"/><circle cx="341.0" cy="445.2" r="1.02" fill="#ab4f94" opacity="0.26"/><circle cx="231.9" cy="321.1" r="1.63" fill="#a149c5" opacity="0.61"/>
<text x="320" y="66" text-anchor="middle" fill="#6a5e88" font-size="12" letter-spacing="3">DRAFTPROOF / 本地签名存证</text>
<text x="320" y="132" text-anchor="middle" font-size="52" fill="url(#brand)" font-weight="700">DraftProof</text>
<text x="320" y="178" text-anchor="middle" fill="#211630" font-size="19">每次保存，都是一条可验签的证据。</text>
<rect x="96" y="206" width="128" height="30" rx="8" fill="#fcf7fe" stroke="#ebcbf7" stroke-width="1.2"/><text x="160" y="225" text-anchor="middle" font-size="12" fill="#211630">ed25519 哈希链</text><rect x="236" y="206" width="104" height="30" rx="8" fill="#fcf7fe" stroke="#ebcbf7" stroke-width="1.2"/><text x="288" y="225" text-anchor="middle" font-size="12" fill="#211630">离线验签</text><rect x="352" y="206" width="88" height="30" rx="8" fill="#fcf7fe" stroke="#ebcbf7" stroke-width="1.2"/><text x="396" y="225" text-anchor="middle" font-size="12" fill="#211630">零网络</text><rect x="452" y="206" width="96" height="30" rx="8" fill="#fcf7fe" stroke="#ebcbf7" stroke-width="1.2"/><text x="500" y="225" text-anchor="middle" font-size="12" fill="#211630">不上云</text><rect x="246" y="262" width="148" height="78" rx="10" fill="#fcf7fe" stroke="#ebcbf7" stroke-width="1.4"/>
<text x="320" y="286" text-anchor="middle" font-size="14" font-weight="600" fill="#211630">回执 .dpb</text>
<text x="320" y="304" text-anchor="middle" font-size="11" fill="#6a5e88">离线可复核</text>
<path d="M290 292l6 7 11-14" fill="none" stroke="#1a7f37" stroke-width="2.4" stroke-linecap="round" stroke-linejoin="round"/>
<path d="M500 428L420 388" fill="none" stroke="#a149c5" stroke-width="1.4" marker-end="url(#arrow)"/>
<path d="M500 428L420 388" class="flow" fill="none" stroke="#ab4f94" stroke-width="2"/>
<path d="M420 388L340 428" fill="none" stroke="#a149c5" stroke-width="1.4" marker-end="url(#arrow)"/>
<path d="M420 388L340 428" class="flow" fill="none" stroke="#ab4f94" stroke-width="2"/>
<path d="M340 428L320 352" fill="none" stroke="#a149c5" stroke-width="1.4" marker-end="url(#arrow)"/>
<path d="M340 428L320 352" class="flow" fill="none" stroke="#ab4f94" stroke-width="2"/>
<path d="M320 352L320 344" fill="none" stroke="#a149c5" stroke-width="1.4" marker-end="url(#arrow)"/>
<path d="M320 352L320 344" class="flow" fill="none" stroke="#ab4f94" stroke-width="2"/>
<circle cx="500" cy="428" r="12" fill="#a149c5" opacity=".5" filter="url(#glow)"/>
<circle class="pulse" style="animation-delay:0.0s" cx="500" cy="428" r="3.5" fill="#796997"/>
<text x="500" y="452" text-anchor="middle" font-size="10.5" fill="#6a5e88">保存 #1  14:02</text>
<circle cx="420" cy="388" r="12" fill="#a149c5" opacity=".5" filter="url(#glow)"/>
<circle class="pulse" style="animation-delay:0.9s" cx="420" cy="388" r="3.5" fill="#796997"/>
<text x="420" y="412" text-anchor="middle" font-size="10.5" fill="#6a5e88">保存 #2  15:40</text>
<circle cx="340" cy="428" r="12" fill="#a149c5" opacity=".5" filter="url(#glow)"/>
<circle class="pulse" style="animation-delay:1.8s" cx="340" cy="428" r="3.5" fill="#796997"/>
<text x="340" y="452" text-anchor="middle" font-size="10.5" fill="#6a5e88">保存 #3  21:18</text>
<circle cx="320" cy="352" r="12" fill="#a149c5" opacity=".5" filter="url(#glow)"/>
<circle class="pulse" style="animation-delay:2.7s" cx="320" cy="352" r="3.5" fill="#796997"/>
<text x="320" y="376" text-anchor="middle" font-size="10.5" fill="#6a5e88">保存 #4  23:05</text>
<text x="320" y="496" text-anchor="middle" font-size="11" fill="#6a5e88">任何编辑器的保存都会被捕获</text>
</svg>
